<?xml version="1.0" standalone="no"?>
<!DOCTYPE svg PUBLIC "-//W3C//DTD SVG 20010904//EN"
 "http://www.w3.org/TR/2001/REC-SVG-20010904/DTD/svg10.dtd">
<svg version="1.0" xmlns="http://www.w3.org/2000/svg"
 width="4000.000000pt" height="4000.000000pt" viewBox="0 0 4000.000000 4000.000000"
 preserveAspectRatio="xMidYMid meet">

<g transform="translate(0.000000,4000.000000) scale(0.100000,-0.100000)"
fill="#000000" stroke="none">
<path d="M13725 27134 c-335 -35 -616 -63 -622 -64 -10 0 -13 -540 -13 -2665
l0 -2665 635 0 635 0 0 1294 0 1294 59 83 c159 222 316 333 487 346 150 12
245 -53 295 -202 11 -32 15 -301 19 -1425 l5 -1385 638 -3 638 -2 -3 1497 c-4
1673 1 1565 -75 1796 -51 154 -117 261 -233 377 -185 184 -386 264 -690 277
-239 9 -450 -33 -655 -131 -145 -70 -256 -148 -382 -269 l-103 -100 0 1007 c0
799 -3 1006 -12 1005 -7 -1 -287 -30 -623 -65z"/>
<path d="M6584 27018 c-199 -297 -390 -699 -493 -1038 -82 -269 -115 -478
-115 -730 0 -220 19 -347 75 -508 159 -448 541 -773 1112 -946 l112 -34 4 -64
c2 -34 -2 -189 -9 -343 -7 -154 -15 -388 -19 -520 l-6 -240 -23 42 c-12 24
-46 80 -76 125 -249 382 -597 681 -1157 994 l-106 59 -22 120 c-81 442 -304
740 -648 865 -154 55 -267 73 -468 74 -246 1 -450 -31 -725 -115 -131 -39
-376 -134 -385 -148 -2 -4 67 -55 153 -114 86 -58 218 -155 292 -214 153 -122
364 -329 427 -418 23 -33 71 -100 106 -150 246 -348 650 -410 1094 -169 l82
44 93 -56 c171 -104 492 -321 603 -410 321 -256 543 -531 653 -809 23 -60 54
-135 66 -165 13 -30 76 -207 140 -393 109 -314 118 -347 136 -480 53 -402 52
-706 -6 -1039 -6 -34 -10 -38 -53 -47 -26 -5 -95 -15 -154 -21 -235 -24 -436
36 -686 203 -429 287 -1387 455 -2006 351 -123 -20 -224 -49 -325 -93 -105
-45 -162 -84 -265 -180 -127 -119 -251 -190 -460 -266 -265 -96 -708 -165
-1066 -165 l-136 0 -8 -1031 -7 -1031 37 -38 c154 -157 448 -180 1040 -79 532
91 615 100 972 106 292 6 447 -2 713 -33 582 -68 1258 -263 1724 -496 44 -22
123 -51 175 -65 84 -22 116 -26 256 -25 397 0 846 136 1465 442 681 338 1382
810 1745 1177 182 184 322 377 562 773 71 118 156 258 189 310 l59 95 3 106
c2 58 -1 132 -7 165 -15 80 -58 162 -104 198 -32 26 -49 31 -106 34 -112 7
-217 -33 -391 -146 -255 -165 -418 -324 -610 -596 -120 -168 -188 -234 -375
-358 -503 -334 -921 -502 -1415 -567 -213 -28 -520 -22 -765 15 -141 21 -309
55 -318 63 -4 4 122 45 280 90 159 46 396 115 528 153 132 38 388 112 569 164
348 100 415 126 511 198 214 159 232 382 45 566 -100 98 -138 115 -315 139
-209 28 -358 34 -515 21 -121 -9 -287 -33 -331 -46 -14 -4 -13 7 8 88 30 119
49 239 63 406 7 89 18 151 31 185 48 122 189 320 358 507 168 185 487 506 535
539 47 32 52 34 90 23 246 -70 356 -87 501 -79 129 8 211 28 310 77 182 88
298 231 375 460 95 284 314 626 628 978 l76 87 -69 11 c-228 39 -624 43 -845
9 -313 -49 -570 -154 -743 -304 -103 -89 -163 -167 -221 -286 -90 -184 -123
-357 -113 -601 l6 -141 -32 -15 c-18 -8 -63 -39 -102 -67 -38 -28 -106 -74
-150 -102 -239 -154 -599 -520 -783 -797 -48 -72 -57 -81 -60 -61 -21 162
-140 659 -227 947 -25 84 -53 187 -60 228 -18 91 -33 415 -44 938 l-8 400 79
90 c226 256 356 494 408 746 28 133 24 331 -8 452 -53 196 -135 323 -347 533
-293 290 -484 565 -730 1050 -56 110 -125 256 -154 325 -29 69 -56 129 -60
133 -4 4 -30 -25 -57 -65z m-64 -743 c13 -219 33 -415 60 -599 11 -71 19 -130
18 -132 -2 -1 -344 191 -355 201 -6 4 67 255 100 345 46 125 157 383 163 378
1 -2 7 -88 14 -193z m281 18 c45 -82 118 -203 161 -270 l79 -121 -120 -161
c-110 -150 -120 -160 -125 -134 -28 141 -64 462 -71 643 -3 74 -8 147 -10 163
-3 15 -3 27 -1 27 2 0 41 -66 87 -147z m444 -658 c38 -44 134 -145 214 -225
81 -80 154 -159 164 -177 l17 -31 -271 -314 c-149 -172 -274 -314 -277 -316
-27 -10 -241 673 -230 732 6 28 301 427 309 418 3 -4 37 -43 74 -87z m-811
-233 l220 -127 43 -169 c43 -170 91 -327 144 -463 15 -40 24 -73 20 -73 -17 0
-329 110 -508 179 l-83 32 -25 81 c-40 125 -57 249 -58 403 0 143 10 266 21
264 4 0 106 -58 226 -127z m1310 -444 c57 -277 -45 -592 -289 -890 -48 -59
-59 -68 -70 -57 -16 17 -108 168 -164 271 l-42 76 273 316 c150 174 276 316
279 316 4 0 10 -15 13 -32z m-3080 -364 c26 -70 45 -129 42 -131 -2 -2 -61 14
-130 36 -70 22 -205 59 -301 83 -96 23 -173 43 -172 45 9 9 231 58 331 73 200
30 176 41 230 -106z m374 91 c51 -13 128 -41 170 -62 64 -32 78 -43 84 -68 14
-55 69 -387 65 -391 -2 -2 -43 18 -92 45 -49 28 -149 78 -224 112 -75 34 -137
63 -139 64 -2 2 -27 69 -57 151 -29 82 -57 158 -61 168 -7 18 -3 19 77 12 46
-4 125 -18 177 -31z m1684 -282 l256 -88 27 -55 c15 -30 49 -94 76 -142 27
-48 49 -90 49 -93 0 -9 -122 41 -215 88 -176 88 -364 232 -457 350 -27 33 -29
39 -13 35 11 -4 135 -46 277 -95z m-2387 7 c61 -16 157 -44 215 -63 l105 -33
-121 -62 -122 -61 -23 25 c-12 13 -72 66 -133 117 -60 50 -121 102 -135 114
l-26 22 65 -15 c36 -8 115 -28 175 -44z m1209 -73 c30 -46 69 -115 86 -154 33
-79 84 -247 78 -262 -1 -5 -41 20 -88 56 -96 73 -84 48 -120 273 -12 74 -24
146 -27 159 -9 39 11 18 71 -72z m-562 -157 c155 -70 352 -181 341 -191 -5 -4
-116 -72 -248 -152 l-240 -146 -34 32 c-18 18 -60 71 -92 119 -51 75 -116 161
-166 220 -14 15 -2 24 143 97 88 44 161 80 162 80 2 1 63 -26 134 -59z m562
-337 c96 -76 146 -124 140 -135 -9 -14 -165 -89 -236 -114 -95 -32 -207 -48
-291 -41 -88 7 -184 34 -170 48 10 10 474 297 482 298 2 1 36 -24 75 -56z
m4895 -357 c-2 -2 -65 -37 -139 -76 -74 -40 -195 -110 -269 -156 -74 -46 -135
-83 -137 -82 -1 2 3 64 9 138 l12 135 70 12 c38 7 110 17 160 22 95 9 301 14
294 7z m-683 -138 c-8 -64 -26 -268 -26 -285 0 -6 -51 -53 -112 -104 -62 -51
-150 -129 -195 -173 -46 -43 -83 -77 -83 -75 0 2 -7 72 -15 154 -8 83 -15 180
-15 216 0 65 1 68 38 101 82 74 205 147 327 194 87 33 87 33 81 -28z m681 -80
c-30 -40 -85 -120 -123 -176 l-68 -104 -37 6 c-88 14 -219 49 -214 56 12 20
470 289 493 290 1 0 -22 -33 -51 -72z m-1252 -520 l18 -193 -65 -86 -66 -87
-6 53 c-8 69 9 244 34 336 17 66 56 169 64 169 1 0 11 -87 21 -192z m806 137
c90 -19 167 -35 171 -35 4 0 -10 -37 -31 -82 -21 -46 -51 -121 -66 -168 -34
-104 -81 -200 -98 -200 -18 0 -541 152 -550 160 -15 13 369 359 399 360 7 0
85 -16 175 -35z m-487 -511 c105 -30 228 -67 274 -80 l83 -25 -25 -20 c-77
-61 -243 -109 -375 -109 -69 0 -222 23 -293 43 l-39 12 60 88 c74 108 103 146
115 146 4 1 94 -24 200 -55z m-4339 -1824 c373 -25 778 -107 1045 -212 89 -35
209 -98 309 -163 111 -72 286 -151 393 -179 233 -60 451 -42 841 70 287 82
364 95 607 101 206 5 300 -1 453 -27 56 -10 72 -18 120 -60 103 -92 110 -155
28 -239 -67 -69 -141 -103 -363 -167 -1014 -292 -1319 -380 -1413 -409 -60
-18 -185 -54 -277 -81 l-167 -47 -3 -99 c-2 -81 0 -99 12 -103 242 -73 564
-143 790 -172 211 -26 611 -24 799 5 433 68 812 212 1253 478 308 185 453 310
593 509 151 215 275 345 465 486 164 123 258 162 323 135 65 -27 98 -144 60
-208 -141 -234 -390 -634 -446 -716 -185 -270 -388 -474 -712 -717 -376 -282
-757 -520 -1170 -731 -292 -150 -397 -197 -630 -284 -318 -119 -528 -172 -756
-190 -204 -17 -298 1 -467 84 -328 163 -822 326 -1272 421 -567 119 -1149 150
-1688 90 -74 -8 -234 -33 -356 -54 -444 -79 -496 -85 -701 -86 -174 0 -195 2
-245 23 -30 12 -61 26 -67 30 -10 6 -11 194 -5 893 l7 884 95 7 c420 30 703
81 971 174 214 74 372 164 518 295 125 112 159 136 243 169 206 80 486 111
813 90z"/>
<path d="M18735 25683 c-181 -14 -399 -59 -549 -114 -129 -47 -313 -143 -416
-216 -122 -87 -297 -262 -382 -383 -199 -281 -317 -619 -358 -1024 -17 -159
-8 -594 15 -736 93 -592 343 -1016 765 -1297 296 -198 662 -294 1115 -295 578
-1 1018 164 1365 511 285 286 454 643 526 1116 26 171 27 658 1 825 -77 495
-230 825 -516 1111 -288 287 -624 441 -1081 493 -119 14 -367 19 -485 9z m380
-943 c285 -100 415 -441 415 -1090 0 -580 -109 -916 -338 -1045 -65 -37 -181
-65 -266 -65 -302 1 -488 195 -560 585 -30 167 -38 311 -33 603 6 372 34 542
118 721 84 181 194 275 364 311 68 15 233 4 300 -20z"/>
<path d="M23525 25684 c-253 -38 -461 -113 -625 -224 -85 -57 -197 -158 -255
-229 -27 -33 -53 -61 -56 -61 -3 0 -18 88 -34 195 l-29 195 -563 0 -563 0 0
-2710 0 -2710 28 1 c15 0 299 28 632 62 l605 63 3 868 2 868 89 -84 c218 -203
486 -301 831 -300 682 1 1210 479 1419 1286 62 238 91 486 91 781 0 522 -92
981 -264 1311 -70 134 -132 225 -217 317 -168 182 -394 304 -656 352 -85 16
-374 28 -438 19z m-102 -944 c146 -55 248 -194 301 -405 41 -168 50 -281 51
-640 0 -372 -6 -446 -51 -629 -100 -406 -337 -589 -671 -520 -132 27 -227 89
-323 210 l-60 75 0 770 0 770 40 59 c123 181 264 290 420 326 81 19 222 11
293 -16z"/>
<path d="M27130 25684 c-299 -29 -581 -123 -805 -268 -258 -168 -457 -397
-600 -691 -148 -303 -219 -612 -232 -1000 -21 -661 156 -1198 520 -1582 215
-227 514 -389 864 -468 303 -68 719 -78 1023 -25 365 64 737 227 1024 449 l76
59 -256 350 -256 349 -122 -75 c-296 -184 -505 -255 -761 -255 -423 -1 -648
134 -755 453 -23 69 -60 244 -60 285 l0 25 1164 0 1164 0 6 23 c3 12 9 150 12
307 5 234 4 311 -10 430 -44 374 -144 670 -314 925 -76 114 -277 323 -382 397
-215 150 -454 245 -740 293 -93 16 -461 28 -560 19z m363 -829 c138 -36 228
-110 291 -239 63 -129 106 -339 106 -513 l0 -73 -555 0 c-543 0 -555 0 -555
19 0 45 32 262 50 338 44 187 122 326 224 398 45 32 136 68 196 78 60 10 190
6 243 -8z"/>
<path d="M30060 22990 c-279 -34 -522 -252 -586 -528 -19 -79 -21 -226 -4
-309 18 -89 90 -228 155 -301 144 -159 313 -234 524 -234 124 0 205 18 306 68
243 120 385 347 385 614 0 420 -362 740 -780 690z"/>
<path d="M17425 20155 l-120 -10 -3 -1457 -2 -1458 130 0 130 0 2 516 3 516
439 -527 439 -527 131 7 c72 4 134 10 138 14 5 4 -195 237 -442 519 -248 281
-450 516 -450 522 0 5 184 211 410 458 225 246 410 450 410 455 0 4 -66 6
-147 5 l-148 -3 -390 -453 -390 -454 -3 938 c-1 516 -5 941 -10 944 -4 3 -61
1 -127 -5z"/>
<path d="M23160 20048 c-113 -57 -120 -250 -10 -312 69 -40 188 -16 234 47 31
43 34 140 4 197 -26 52 -89 90 -148 90 -20 0 -56 -10 -80 -22z"/>
<path d="M33850 20048 c-55 -28 -90 -89 -90 -158 0 -55 33 -125 72 -154 60
-43 194 -17 242 47 31 43 34 140 4 197 -26 52 -89 90 -148 90 -20 0 -56 -10
-80 -22z"/>
<path d="M13000 18600 l0 -1370 120 0 120 0 2 1141 3 1141 445 -884 445 -883
135 0 134 0 446 883 445 884 3 -1141 2 -1141 120 0 120 0 0 1370 0 1370 -129
0 -130 0 -503 -1000 c-277 -550 -505 -1000 -508 -1000 -3 0 -231 450 -508
1000 l-503 1000 -130 0 -129 0 0 -1370z"/>
<path d="M21430 18600 l0 -1370 744 0 744 0 7 78 c3 42 8 94 11 115 l6 37
-621 0 -621 0 0 1255 0 1255 -135 0 -135 0 0 -1370z"/>
<path d="M29300 18600 l0 -1370 739 0 c407 0 742 3 744 8 3 4 8 55 12 115 l7
107 -621 0 -621 0 0 505 0 505 519 0 c486 0 520 1 525 18 2 9 7 61 11 114 l7
98 -529 2 -528 3 0 515 0 515 571 3 571 2 6 83 c4 45 7 97 7 115 l0 32 -710 0
-710 0 0 -1370z"/>
<path d="M16399 19189 c-90 -9 -243 -47 -365 -90 -91 -32 -294 -118 -294 -125
0 -3 31 -87 59 -156 l10 -28 83 37 c237 103 445 149 633 140 153 -8 220 -32
301 -112 94 -93 106 -135 111 -410 l5 -220 -229 -23 c-444 -43 -676 -89 -789
-156 -81 -47 -162 -129 -193 -195 -24 -52 -26 -66 -26 -191 0 -125 2 -139 26
-190 55 -115 158 -197 299 -236 48 -13 99 -18 195 -17 140 0 225 18 556 113
76 22 142 40 148 40 7 0 11 -27 11 -70 l0 -70 125 0 125 0 0 738 c0 487 -4
759 -11 798 -38 208 -218 369 -454 408 -117 19 -231 24 -326 15z m541 -1387
l0 -279 -81 -31 c-228 -90 -526 -125 -699 -84 -133 32 -196 91 -220 205 -21
104 6 186 86 255 83 74 193 105 594 171 197 32 242 39 283 40 l37 1 0 -278z"/>
<path d="M19537 19185 c-286 -55 -546 -264 -657 -531 -77 -185 -111 -432 -91
-655 15 -163 41 -264 97 -379 39 -80 61 -109 133 -180 71 -71 103 -94 181
-133 52 -25 133 -56 180 -67 161 -38 419 -36 670 6 115 19 279 70 286 89 3 7
-6 56 -21 108 l-27 94 -94 -28 c-172 -52 -261 -63 -484 -64 -199 0 -207 1
-283 28 -188 66 -307 194 -362 392 -12 40 -19 115 -22 228 l-5 167 700 0 700
0 7 79 c12 136 -13 322 -61 449 -31 84 -102 189 -164 245 -62 56 -164 110
-260 137 -100 28 -312 36 -423 15z m363 -251 c30 -9 71 -24 91 -34 50 -26 126
-106 156 -163 30 -60 60 -173 64 -247 l4 -55 -567 -3 c-451 -2 -568 0 -568 10
0 21 32 98 70 167 43 79 157 203 233 252 60 39 153 74 235 89 66 12 216 4 282
-16z"/>
<path d="M23180 19191 l-65 -6 -3 -977 -2 -978 130 0 130 0 0 985 0 985 -62
-2 c-35 -1 -92 -4 -128 -7z"/>
<path d="M23563 19193 c-40 -2 -73 -7 -73 -11 0 -4 162 -443 359 -977 l359
-970 119 -3 119 -3 392 982 c216 540 391 983 388 986 -3 3 -65 1 -137 -3
l-133 -9 -305 -822 c-167 -453 -307 -823 -311 -823 -3 0 -132 372 -286 828
l-281 827 -69 1 c-38 0 -102 -1 -141 -3z"/>
<path d="M26105 19194 c-11 -2 -47 -9 -80 -16 -275 -51 -534 -273 -644 -551
-59 -149 -82 -288 -83 -497 0 -318 67 -524 222 -681 133 -135 298 -209 512
-231 131 -14 396 1 552 32 126 25 256 68 263 87 3 8 1 31 -5 51 -6 20 -18 62
-27 93 l-15 55 -114 -32 c-150 -43 -305 -64 -474 -64 -167 0 -250 16 -357 69
-103 51 -182 130 -230 233 -54 115 -66 175 -72 356 l-6 162 700 0 700 0 7 38
c18 108 -4 334 -44 454 -73 215 -221 356 -442 418 -71 21 -312 36 -363 24z
m315 -263 c122 -38 193 -101 250 -223 25 -55 60 -204 60 -259 0 -18 -20 -19
-571 -19 l-571 0 6 28 c13 52 75 173 119 230 113 146 248 233 410 262 76 13
222 4 297 -19z"/>
<path d="M27505 19184 c-285 -50 -477 -216 -516 -447 -24 -146 6 -269 89 -358
100 -108 197 -158 460 -233 269 -77 418 -153 473 -242 32 -52 39 -175 14 -241
-36 -94 -130 -167 -271 -209 -45 -14 -91 -18 -194 -18 -236 2 -389 34 -531
111 -9 5 -90 -188 -83 -199 11 -17 105 -58 190 -83 105 -30 285 -55 402 -55
459 1 713 170 752 501 36 307 -124 474 -590 615 -191 58 -323 113 -384 159
-80 61 -106 207 -53 298 63 106 191 168 392 187 111 11 310 -1 410 -24 33 -8
61 -13 63 -12 2 3 62 207 62 212 0 3 -159 26 -270 39 -153 18 -309 18 -415 -1z"/>
<path d="M31505 19189 c-152 -15 -343 -72 -544 -160 l-119 -53 29 -79 c16 -44
33 -85 37 -92 5 -10 29 -4 97 26 232 101 438 145 625 136 225 -11 347 -99 395
-282 11 -44 15 -112 15 -260 l0 -201 -187 -18 c-206 -19 -421 -47 -553 -72
-185 -34 -290 -81 -383 -172 -95 -93 -122 -170 -115 -327 4 -95 8 -111 42
-179 80 -163 235 -241 476 -241 133 0 218 17 511 100 106 30 196 55 201 55 4
0 8 -31 8 -70 l0 -70 125 0 125 0 0 55 c0 30 2 55 5 55 3 0 28 -11 55 -25 114
-58 356 -105 538 -105 393 0 645 130 726 374 28 83 38 190 26 269 -34 226
-190 352 -590 473 -300 90 -425 162 -451 256 -72 265 187 424 631 388 69 -6
152 -17 185 -24 33 -8 61 -13 62 -12 4 3 63 199 63 207 0 7 -162 33 -320 50
-185 21 -401 0 -528 -50 -117 -46 -254 -158 -298 -244 -52 -99 -72 -223 -54
-331 14 -87 46 -149 107 -207 103 -99 192 -142 441 -213 269 -77 418 -153 473
-242 31 -51 38 -171 15 -242 -30 -89 -131 -167 -267 -206 -178 -50 -553 -10
-697 74 -18 11 -35 20 -37 20 -2 0 -18 -35 -35 -77 -18 -43 -36 -82 -41 -87
-5 -6 -9 268 -9 670 0 730 0 735 -52 844 -36 75 -140 171 -238 218 -121 60
-326 89 -495 71z m535 -1383 l0 -284 -82 -32 c-285 -109 -631 -131 -784 -51
-93 48 -135 120 -135 230 -1 123 51 195 187 257 97 45 246 76 749 152 33 5 61
10 63 11 1 0 2 -127 2 -283z"/>
<path d="M33868 19193 l-68 -4 0 -979 0 -980 130 0 130 0 0 985 0 985 -62 -2
c-35 -1 -93 -3 -130 -5z"/>
<path d="M35045 19194 c-11 -2 -47 -9 -80 -16 -275 -51 -534 -273 -644 -551
-59 -149 -82 -288 -83 -497 -1 -316 67 -524 222 -681 133 -135 298 -209 512
-231 131 -14 396 1 552 32 126 25 256 68 263 87 3 8 1 31 -5 51 -6 20 -18 62
-27 93 l-15 55 -114 -32 c-150 -43 -305 -64 -474 -64 -167 0 -250 16 -357 69
-103 51 -182 130 -230 233 -54 115 -66 175 -72 356 l-6 162 700 0 700 0 7 38
c18 108 -4 334 -44 454 -73 215 -221 356 -442 418 -71 21 -312 36 -363 24z
m315 -263 c122 -38 193 -101 250 -223 25 -55 60 -204 60 -259 0 -18 -20 -19
-571 -19 l-571 0 6 28 c13 52 75 173 119 230 113 146 248 233 410 262 76 13
222 4 297 -19z"/>
<path d="M36023 19193 l-63 -4 0 -979 0 -980 125 0 125 0 0 685 0 685 67 71
c90 95 222 192 312 230 100 42 236 58 318 39 32 -8 62 -14 67 -15 5 0 31 50
57 110 l48 110 -41 12 c-108 33 -260 24 -384 -21 -123 -45 -288 -177 -412
-331 l-32 -40 0 218 0 217 -62 -2 c-35 -1 -91 -3 -125 -5z"/>
</g>
</svg>
